<svg width="327" height="152" viewBox="0 0 327 152" fill="" xmlns="http://www.w3.org/2000/svg">
<path d="M0.879625 5.952H54.9276V21.312H0.879625V5.952ZM18.2556 25.152H37.4556V72H18.2556V25.152ZM88.1226 47.616C88.1226 44.352 88.0906 42.176 88.0266 41.088C87.9626 39.552 87.7706 38.4 87.4506 37.632C87.1306 36.8 86.6186 36.288 85.9146 36.096C85.1466 35.904 84.0906 35.808 82.7466 35.808H81.4026V22.272H82.7466C88.3146 22.272 92.6666 22.72 95.8026 23.616C98.9386 24.448 101.275 25.856 102.811 27.84C104.219 29.632 105.115 32.032 105.499 35.04C105.947 37.984 106.171 42.176 106.171 47.616C106.171 52.672 106.011 56.608 105.691 59.424C105.435 62.176 104.763 64.448 103.675 66.24C102.459 68.224 100.635 69.728 98.2026 70.752C95.7706 71.712 92.4106 72.32 88.1226 72.576V47.616ZM82.7466 72.768C77.1786 72.768 72.8266 72.352 69.6906 71.52C66.5546 70.688 64.2186 69.28 62.6826 67.296C61.2746 65.504 60.3466 63.136 59.8986 60.192C59.5146 57.248 59.3226 53.056 59.3226 47.616C59.3226 42.624 59.4826 38.72 59.8026 35.904C60.1226 33.088 60.8266 30.752 61.9146 28.896C63.0666 26.848 64.8586 25.344 67.2906 24.384C69.7226 23.36 73.0826 22.72 77.3706 22.464V47.616C77.3706 50.88 77.4026 53.024 77.4666 54.048C77.5306 55.584 77.7226 56.736 78.0426 57.504C78.3626 58.272 78.9066 58.752 79.6746 58.944C80.3146 59.136 81.3386 59.232 82.7466 59.232H84.0906V72.768H82.7466ZM118.1 0.671997H135.86V72H118.1V0.671997ZM139.892 57.984V37.632L148.244 23.04H166.964L152.564 46.272L167.252 72H147.86L139.892 57.984ZM211.163 36.384C209.947 36.32 208.283 36.16 206.171 35.904C202.203 35.52 199.003 35.328 196.571 35.328H193.403V22.272C197.947 22.272 202.267 22.592 206.363 23.232L211.163 24.096V36.384ZM197.243 57.12C197.243 56.16 197.083 55.552 196.763 55.296C196.443 55.04 195.771 54.848 194.747 54.72L184.379 53.28C181.819 52.896 179.739 52.288 178.139 51.456C176.603 50.624 175.451 49.504 174.683 48.096C173.915 46.88 173.403 45.408 173.147 43.68C172.891 41.952 172.763 39.808 172.763 37.248C172.763 32 174.331 28.16 177.467 25.728C180.091 23.808 184.059 22.688 189.371 22.368V37.44C189.371 38.4 189.499 39.04 189.755 39.36C190.011 39.616 190.811 39.84 192.155 40.032L203.675 41.568C205.339 41.76 206.779 42.112 207.995 42.624C209.211 43.072 210.235 43.776 211.067 44.736C212.923 46.784 213.851 50.72 213.851 56.544C213.851 62.688 212.283 66.976 209.147 69.408C206.395 71.456 202.427 72.544 197.243 72.672V57.12ZM193.211 72.768C188.091 72.704 183.611 72.384 179.771 71.808L174.299 70.944V58.656C176.859 58.912 180.315 59.168 184.667 59.424C187.099 59.552 188.827 59.616 189.851 59.616H193.211V72.768ZM250.144 41.664C250.144 40 250.08 38.816 249.952 38.112C249.824 37.408 249.44 36.896 248.8 36.576C248.224 36.256 247.136 36.032 245.536 35.904C244.576 35.84 242.496 35.808 239.296 35.808C236.224 35.808 233.376 35.936 230.752 36.192L225.664 36.48V24C231.68 22.848 238.176 22.272 245.152 22.272C250.528 22.272 254.72 22.656 257.728 23.424C260.8 24.192 263.104 25.408 264.64 27.072C265.984 28.608 266.848 30.56 267.232 32.928C267.68 35.296 267.904 38.592 267.904 42.816V72H250.144V41.664ZM235.936 72.672C231.52 72.672 228.256 71.456 226.144 69.024C224.032 66.528 222.976 62.784 222.976 57.792C222.976 54.72 223.2 52.256 223.648 50.4C224.096 48.48 224.864 46.976 225.952 45.888C227.04 44.736 228.544 43.936 230.464 43.488C232.384 42.976 234.912 42.72 238.048 42.72L246.112 42.912V51.456H245.152C243.68 51.456 242.72 51.488 242.272 51.552C240.992 51.616 240.32 52.224 240.256 53.376C240.192 53.76 240.16 54.56 240.16 55.776C240.16 56.736 240.192 57.472 240.256 57.984C240.384 58.496 240.576 58.912 240.832 59.232C241.152 59.68 241.632 59.936 242.272 60C243.168 60.128 244.128 60.192 245.152 60.192H246.112V69.984C244.704 71.072 243.2 71.776 241.6 72.096C240.064 72.48 238.176 72.672 235.936 72.672ZM308.763 48.864C308.763 45.472 308.731 43.232 308.667 42.144C308.539 40.352 308.379 39.168 308.187 38.592C307.931 37.952 307.483 37.568 306.843 37.44C306.203 37.248 305.179 37.152 303.771 37.152H302.811V25.152C305.307 23.296 308.571 22.368 312.603 22.368C318.363 22.368 322.235 24.128 324.219 27.648C325.115 29.184 325.723 31.072 326.043 33.312C326.363 35.488 326.523 38.176 326.523 41.376V72H308.763V48.864ZM281.019 23.04H298.779V72H281.019V23.04ZM39.0254 84.952H40.6574L48.2414 111.256L37.2014 151H18.0014L39.0254 84.952ZM60.6254 139.288H44.5934L48.6254 124.504H56.3054L44.9774 84.952H62.5454L83.5694 151H63.9854L60.6254 139.288ZM119.332 127.864C119.332 124.472 119.3 122.232 119.236 121.144C119.108 119.352 118.948 118.168 118.756 117.592C118.5 116.952 118.052 116.568 117.412 116.44C116.772 116.248 115.748 116.152 114.34 116.152H113.38V104.152C115.876 102.296 119.14 101.368 123.172 101.368C128.932 101.368 132.804 103.128 134.788 106.648C135.684 108.184 136.292 110.072 136.612 112.312C136.932 114.488 137.092 117.176 137.092 120.376V151H119.332V127.864ZM91.5876 102.04H109.348V151H91.5876V102.04ZM150.425 79.672H168.185V93.496H150.425V79.672ZM150.425 102.04H168.185V151H150.425V102.04ZM208.297 121.144C208.297 119.608 208.137 118.424 207.817 117.592C207.561 116.952 207.145 116.568 206.569 116.44C206.057 116.248 205.129 116.152 203.785 116.152H203.305V104.152C205.801 102.296 209.257 101.368 213.673 101.368C215.657 101.368 217.385 101.624 218.857 102.136C220.329 102.584 221.577 103.416 222.601 104.632C224.905 107.448 226.057 112.696 226.057 120.376V151H208.297V121.144ZM235.081 121.144C235.081 119.608 234.921 118.424 234.601 117.592C234.345 116.952 233.929 116.568 233.353 116.44C232.841 116.248 231.913 116.152 230.569 116.152H230.089C229.961 114.488 229.769 112.76 229.513 110.968C229.001 108.408 228.457 106.552 227.881 105.4C230.569 102.712 234.409 101.368 239.401 101.368C244.841 101.368 248.553 103.128 250.537 106.648C251.433 108.184 252.041 110.072 252.361 112.312C252.681 114.488 252.841 117.176 252.841 120.376V151H235.081V121.144ZM181.513 102.04H199.273V151H181.513V102.04ZM286.481 121.72H293.201C293.201 118.136 292.849 115.832 292.145 114.808C291.761 114.232 291.249 113.88 290.609 113.752C289.969 113.56 289.041 113.464 287.825 113.464H286.481V101.272H287.825C293.329 101.272 297.553 101.72 300.497 102.616C303.505 103.512 305.713 104.984 307.121 107.032C308.401 108.824 309.169 111.128 309.425 113.944C309.745 116.76 309.905 120.984 309.905 126.616V130.456H286.481V121.72ZM289.745 151.768C283.857 151.768 279.217 151.288 275.825 150.328C272.497 149.304 270.001 147.704 268.337 145.528C266.865 143.608 265.905 141.24 265.457 138.424C265.009 135.544 264.785 131.608 264.785 126.616C264.785 122.008 264.945 118.36 265.265 115.672C265.585 112.92 266.257 110.584 267.281 108.664C268.433 106.552 270.193 104.92 272.561 103.768C274.993 102.552 278.289 101.784 282.449 101.464V130.456C282.449 132.632 282.545 134.2 282.737 135.16C282.929 136.056 283.377 136.728 284.081 137.176C284.849 137.688 286.033 137.976 287.633 138.04C289.681 138.168 291.857 138.232 294.161 138.232C298.257 138.232 301.233 138.136 303.089 137.944L307.985 137.56V149.944C305.425 150.712 301.905 151.224 297.425 151.48C295.249 151.672 292.689 151.768 289.745 151.768Z" fill="black"/>
</svg>
