<svg version="1.2" xmlns="http://www.w3.org/2000/svg" viewBox="0 0 795 106" width="795" height="106">
	<title>New Project</title>
	<style>
		.s0 { fill: #ffffff } 
	</style>
	<path id="Toksan-Wiki" class="s0" aria-label="Toksan-Wiki"  d="m2.2 32.2v-21.8h76.6v21.8zm24.6 71.8v-66.4h27.2v66.4zm95.6 0.8v-35.3q0-7-0.1-9.3-0.2-3.3-0.8-4.9-0.7-1.8-2.2-2.2-1.6-0.4-4.5-0.4h-1.9v-19.1h1.9q11.8 0 18.5 1.9 6.7 1.7 9.9 5.9 3 3.8 3.8 10.2 1 6.3 1 17.9 0 10.7-0.7 16.7-0.5 5.8-2.9 9.6-2.5 4.3-7.7 6.4-5.2 2.1-14.3 2.6zm-7.6 0.3q-11.8 0-18.5-1.8-6.7-1.7-9.9-6-3-3.8-4-10-0.8-6.3-0.8-17.8 0-10.7 0.7-16.6 0.7-6 3-10 2.4-4.3 7.6-6.4 5.2-2.1 14.3-2.7v35.7q0 6.9 0.1 9.1 0.2 3.2 0.8 4.9 0.7 1.6 2.3 2 1.4 0.4 4.4 0.4h1.9v19.2zm46.7-1.1v-101h25.1v101zm42.2 0l-11.3-19.9v-28.8l11.8-20.7h26.5l-20.4 33 20.8 36.4zm86.3-50.5q-2.6-0.1-7.1-0.6-8.4-0.9-13.6-0.9h-4.5v-18.4q9.7 0 18.4 1.3l6.8 1.2zm-19.8 51.4v-22q0-2-0.6-2.6-0.7-0.5-2.9-0.8l-14.7-2q-5.4-0.8-8.8-2.6-3.3-1.8-4.9-4.8-1.6-2.6-2.2-6.2-0.5-3.7-0.5-9.1 0-11.2 6.6-16.4 5.6-4 16.9-4.7v21.3q0 2.1 0.5 2.8 0.6 0.5 3.4 0.9l16.4 2.2q3.5 0.4 6.1 1.5 2.6 0.9 4.3 3 4 4.3 4 16.7 0 13.1-6.7 18.2-5.8 4.4-16.9 4.6zm-5.7 0.2q-10.8-0.2-19-1.4l-7.8-1.2v-17.4q5.5 0.5 14.7 1.1 5.2 0.2 7.4 0.2h4.7zm77.3-1v-43q0-3.6-0.3-5-0.3-1.5-1.6-2.2-1.2-0.7-4.6-1-2.1-0.1-8.9-0.1-6.5 0-12.1 0.5l-7.2 0.4v-17.6q12.8-2.5 27.6-2.5 11.4 0 17.8 1.6 6.6 1.7 9.8 5.2 2.9 3.3 3.7 8.3 0.9 5 0.9 14v41.4zm-20.1 0.9q-9.4 0-13.9-5.2-4.4-5.3-4.4-15.9 0-6.5 0.9-10.4 1-4.1 3.3-6.4 2.3-2.5 6.4-3.4 4-1.1 10.7-1.1l11.4 0.3v12.1h-1.3q-3.2 0-4.1 0.1-2.7 0.1-2.9 2.6-0.1 0.8-0.1 3.4 0 2 0.1 3.1 0.3 1.1 0.9 1.8 0.6 0.9 2 1.1 1.9 0.2 4.1 0.2h1.3v13.9q-3 2.3-6.4 3.1-3.2 0.7-8 0.7zm99.8-0.9v-32.8q0-7.2-0.1-9.5-0.3-3.8-0.7-5.1-0.5-1.3-1.9-1.6-1.3-0.4-4.3-0.4h-1.4v-17q5.3-4 13.9-4 12.2 0 16.4 7.5 1.9 3.3 2.6 8.1 0.7 4.6 0.7 11.4v43.4zm-39.3 0v-69.4h25.2v69.4zm78.6-28.6v-20.3h38.7v20.3zm68.7 28.6l-0.9-4q-1-3.8-2.5-10.6l-3.7-15-4-17.1-11.1-46.9h27.1l19.3 93.6zm29.9 0l-9.5-46.8 10.2-46.8h27.9l22.3 93.6h-23.3l-1-4.5-2.9-11.9-4.1-17.2q-2.6-10.5-4.9-20.6h-0.8l-4.6 20.6-1.5 6.9q-0.7 2.9-1.4 5.4-0.5 2.6-1.1 4.9l-2.7 11.9-1.1 4.5zm56.7 0l-11.2-47.6 8.1-46h27.1l-11.2 46.9-4.1 17.1q-2.5 10.5-3.5 15l-2.6 10.6-0.9 4zm33-81.5v-19.6h25.2v19.6zm0 81.5v-69.4h25.1v69.4zm40.7 0v-101.1h25.2v101.1zm42.1 0l-11.3-19.9v-28.8l11.9-20.7h26.5l-20.4 32.9 20.8 36.5zm36.2-81.5v-19.6h25.1v19.6zm0 81.5v-69.4h25.2v69.4z"/>
</svg>